<svg width="624" height="596" viewBox="0 0 624 596" fill="none" xmlns="http://www.w3.org/2000/svg">
<path d="M53.4433 484.377L264.863 85.0317C280.15 56.152 287.797 41.712 297.993 36.991C306.877 32.879 317.117 32.879 326 36.991C336.2 41.712 343.843 56.152 359.133 85.0313L570.55 484.377C584.227 510.21 591.067 523.127 589.683 533.667C588.477 542.863 583.493 551.143 575.93 556.513C567.263 562.663 552.647 562.663 523.417 562.663H100.579C71.348 562.663 56.7327 562.663 48.066 556.513C40.5017 551.143 35.517 542.863 34.3107 533.667C32.9283 523.127 39.7667 510.21 53.4433 484.377Z" fill="black" stroke="black" stroke-width="66.6667" stroke-linecap="round" stroke-linejoin="round"/>
</svg>
